<svg width="696" height="311" viewBox="0 0 696 311" fill="none" xmlns="http://www.w3.org/2000/svg">
<rect x="1" y="1" width="694" height="309" rx="23" fill="#F8FAFC" stroke="#CBD5E1" stroke-width="2" stroke-dasharray="6 6"/>
<path fill-rule="evenodd" clip-rule="evenodd" d="M353.947 129.333H342.667C330.885 129.333 321.333 138.885 321.333 150.667V161.973C321.333 173.755 330.885 183.307 342.667 183.307H353.947C365.729 183.307 375.28 173.755 375.28 161.973V150.667C375.28 138.885 365.729 129.333 353.947 129.333ZM337.653 140.32C340.599 140.32 342.987 142.708 342.987 145.653C342.987 148.599 340.599 150.987 337.653 150.987C334.708 150.987 332.32 148.599 332.32 145.653C332.32 142.708 334.708 140.32 337.653 140.32ZM357.36 177.653C364.91 174.834 369.923 167.632 369.947 159.573L369.867 154.987C369.867 153.893 369.653 151.84 369.653 151.84H365.307C355.244 151.871 346.055 157.563 341.547 166.56C338.274 163.635 334.042 162.012 329.653 162H326.427C326.189 168.199 329.556 173.977 335.067 176.827C337.037 177.876 339.234 178.426 341.467 178.427H352.587C354.211 178.45 355.826 178.188 357.36 177.653Z" fill="#E2E8F0"/>
</svg>
