<svg width="343" height="311" viewBox="0 0 343 311" fill="none" xmlns="http://www.w3.org/2000/svg">
<rect x="1" y="1" width="341" height="309" rx="23" fill="#F8FAFC" stroke="#CBD5E1" stroke-width="2" stroke-dasharray="6 6"/>
<path fill-rule="evenodd" clip-rule="evenodd" d="M177.946 129.333H166.666C154.884 129.333 145.333 138.885 145.333 150.667V161.973C145.333 173.755 154.884 183.307 166.666 183.307H177.946C189.729 183.307 199.28 173.755 199.28 161.973V150.667C199.28 138.885 189.729 129.333 177.946 129.333ZM161.653 140.32C164.599 140.32 166.986 142.708 166.986 145.653C166.986 148.599 164.599 150.987 161.653 150.987C158.708 150.987 156.32 148.599 156.32 145.653C156.32 142.708 158.708 140.32 161.653 140.32ZM181.36 177.653C188.91 174.834 193.923 167.632 193.946 159.573L193.866 154.987C193.866 153.893 193.653 151.84 193.653 151.84H189.306C179.243 151.871 170.055 157.563 165.546 166.56C162.274 163.635 158.042 162.012 153.653 162H150.426C150.188 168.199 153.556 173.977 159.066 176.827C161.037 177.876 163.234 178.426 165.466 178.427H176.586C178.211 178.45 179.826 178.188 181.36 177.653Z" fill="#E2E8F0"/>
</svg>
